<svg width="128" height="122" viewBox="0 0 128 122" fill="none" xmlns="http://www.w3.org/2000/svg">
<rect width="128" height="122" fill="white"/>
<path d="M25.984 83.904V36.672H61.336V44.664H34.48V57.984H58.6V65.544H34.48V79.008H62.2V83.904H69.184V87H19V83.904H25.984ZM120.325 83.904V87H104.773L92.7494 70.08H81.5894V87H66.1094V83.904H73.0934V36.672H91.8134C99.4934 36.672 104.989 37.968 108.301 40.56C111.613 43.152 113.269 47.304 113.269 53.016C113.269 61.32 109.645 66.552 102.397 68.712L113.341 83.904H120.325ZM92.1734 62.376C96.9734 62.376 100.237 61.632 101.965 60.144C103.693 58.656 104.557 56.28 104.557 53.016C104.557 49.704 103.669 47.448 101.893 46.248C100.117 45 96.9494 44.376 92.3894 44.376H81.5894V62.376H92.1734Z" fill="black"/>
</svg>
